<svg xmlns="http://www.w3.org/2000/svg" preserveAspectRatio="xMidYMid" width="50" height="50" viewBox="0 0 50 50"><defs><style>.cls-3{fill:#fff;fill-opacity:0}.cls-4{fill:#30306d}</style></defs><g id="percent-primarysvg"><path id="rect-1" class="cls-3" d="M0 0h50v50H0z"/><path d="M6.166 42.335L42.129 6.372l1.596 1.595L7.762 43.931l-1.596-1.596zm6.103-21.794c-4.565 0-8.277-3.713-8.277-8.278 0-4.564 3.712-8.278 8.277-8.278 4.565 0 8.277 3.714 8.277 8.278 0 4.565-3.712 8.278-8.277 8.278zm0-14.299a6.028 6.028 0 0 0-6.021 6.021 6.028 6.028 0 0 0 6.021 6.021 6.028 6.028 0 0 0 6.021-6.021 6.028 6.028 0 0 0-6.021-6.021zm25.459 23.203c4.564 0 8.277 3.713 8.277 8.278 0 4.563-3.713 8.276-8.277 8.276-4.565 0-8.278-3.713-8.278-8.276 0-4.565 3.713-8.278 8.278-8.278zm0 14.298c3.319 0 6.021-2.7 6.021-6.02a6.03 6.03 0 0 0-6.021-6.021 6.03 6.03 0 0 0-6.022 6.021c0 3.32 2.702 6.02 6.022 6.02z" id="path-1" class="cls-4" fill-rule="evenodd"/></g></svg>